<svg version="1.1" id="Layer_1" xmlns="http://www.w3.org/2000/svg" xmlns:xlink="http://www.w3.org/1999/xlink" x="0px" y="0px"
        width="445.14px" height="110.41px" viewBox="0 0 445.14 110.41" style="enable-background:new 0 0 445.14 110.41;"
        xml:space="preserve">
    <g>
        <polygon style="fill:#FFFFFF;" points="0,0 0,82.777 45.639,82.777 45.639,64.21 21.135,64.21 21.135,0 	"/>
        <g>
            <path style="fill:#FFFFFF;" d="M72.327,18.679c22.594,0,33.446,17.787,33.446,33.003c0,15.214-10.853,33-33.446,33
                c-22.599,0-33.446-17.785-33.446-33C38.881,36.466,49.729,18.679,72.327,18.679 M72.327,67.34c8.05,0,14.877-6.598,14.877-15.658
                c0-9.065-6.827-15.658-14.877-15.658c-8.059,0-14.88,6.593-14.88,15.658C57.447,60.742,64.269,67.34,72.327,67.34"/>
        </g>
        <polygon style="fill:#FFFFFF;" points="139.887,82.777 122.1,82.777 99.838,20.695 119.088,20.695 130.937,59.4 131.16,59.4
            143.017,20.695 162.25,20.695 	"/>
        <g>
            <path style="fill:#FFFFFF;" d="M219.411,63.313c-3.02,6.937-7.383,12.309-12.641,15.879c-5.156,3.697-11.297,5.605-17.674,5.605
                c-17.79,0-32.894-14.436-32.894-32.884c0-17.346,13.648-33.344,32.566-33.344c18.893,0,32.766,14.993,32.766,33.893
                c0,2.46-0.222,3.47-0.444,4.927h-46.538c1.119,7.381,7.272,11.739,14.544,11.739c5.696,0,8.724-2.565,11.297-5.815H219.411
                L219.411,63.313z M202.963,44.858c-0.781-3.691-4.475-10.625-14.093-10.625c-9.628,0-13.309,6.934-14.095,10.625H202.963z"/>
        </g>
        <rect x="223.188" y="0.002" style="fill:#FFFFFF;" width="18.558" height="82.775"/>
        <path style="fill:#FFFFFF;" d="M264.292,14.094h-18.568V0.002h18.568V14.094z M264.292,82.777h-18.568V20.695h18.568V82.777z"/>
        <g>
            <path style="fill:#FFFFFF;" d="M334.748,75.285c0,9.279-0.668,15.213-3.688,20.468c-4.809,7.838-16.111,14.657-31.436,14.657
                c-21.586,0-29.76-12.975-30.992-21.816h21.481c2.692,6.153,9.62,6.153,10.853,6.153c2.352,0,15.104-0.224,15.104-16.888v-1.9
                h-0.225c-1.896,3.57-7.27,8.838-17.004,8.838c-16.891,0-31.322-12.753-31.322-32.672c0-21.254,15.218-33.446,31.322-33.446
                c6.941,0,13.762,2.46,17.109,7.835h0.23v-5.819h18.566V75.285L334.748,75.285z M300.966,67.457c8.953,0,15.215-6.486,15.215-15.44
                c0-9.959-6.828-15.993-15.105-15.993c-7.939,0-14.986,6.371-14.986,15.426C286.089,61.408,293.257,67.457,300.966,67.457"/>
            <path style="fill:#FFFFFF;" d="M338.841,0.002h18.566V26.4h0.23c3.127-5.596,9.389-7.834,15.988-7.834
                c5.938,0,12.982,2.128,16.889,6.821c5.258,6.156,5.824,11.642,5.824,22.71v34.68h-18.574V48.998c0-3.019,0-12.973-9.953-12.973
                c-10.404,0-10.404,9.279-10.404,12.302v34.45h-18.566V0.002z"/>
        </g>
        <polygon style="fill:#FFFFFF;" points="422.681,20.697 431.644,20.697 431.644,34.792 422.681,34.792 422.681,82.777
            404.123,82.777 404.123,34.792 394.943,34.792 394.943,20.697 404.123,20.697 404.123,0 422.681,0 	"/>
        <path style="fill:#FFFFFF;" d="M434.365,73.004h3.477l1.9,6.055h0.043l1.879-6.055h3.477v9.703h-2.559l0.043-6.577h-0.043
            l-1.9,6.577h-1.834l-1.967-6.577l-0.045,0.043l0.088,6.534h-2.559V73.004z M428.378,75.32h-1.988v-2.316h6.709v2.316h-1.967v7.387
            h-2.754V75.32z"/>
    </g>
    </svg>